<svg xmlns="http://www.w3.org/2000/svg" id="Calque_2" viewBox="0 0 431 83.9662"><g id="Components"><g id="_5f8221e7-c980-4739-abe6-cf062a4bdbba_1"><polygon points="20.3532 63.9368 31.8512 83.9661 31.8512 61.0335 20.3532 40.9947 20.3532 63.9368" style="fill:#94bcfb; stroke-width:0px;"></polygon><polygon points="52.2056 52.5134 63.7036 72.5427 63.7036 49.6101 52.2056 29.5713 52.2056 52.5134" style="fill:#94bcfb; stroke-width:0px;"></polygon><path d="m0,42.91v41.0561h20.3543v-42.9714c-6.4849,1.2124-13.2152,1.8673-20.1198,1.8995-.0781.0053-.1559.0114-.2344.0159Z" style="fill:#0554f1; stroke-width:0px;"></path><path d="m31.8523,83.9661h20.3532V29.5713c-6.3049,3.5229-13.1279,6.4295-20.3532,8.6193v45.7756Z" style="fill:#0554f1; stroke-width:0px;"></path><path d="m63.7033,22.0324v61.9337h20.3543V0c-5.2555,8.3172-12.1643,15.7668-20.3543,22.0324Z" style="fill:#0554f1; stroke-width:0px;"></path><polygon points="128.6289 83.9661 139.4501 83.9661 139.4501 30.9294 157.5714 30.9294 157.5714 21.6546 110.5081 21.6546 110.5081 30.9294 128.6289 30.9294 128.6289 83.9661" style="fill:#203687; stroke-width:0px;"></polygon><path d="m166.9059,38.4499h-8.2651v45.5162h10.8207v-31.2451l.123-.1288c3.4011-3.5763,7.2983-5.4483,11.589-5.569v-8.5662c-4.2367.1271-8.3219,2.0734-12.1495,5.7896l-.5577.5414-1.5604-6.3379Z" style="fill:#203687; stroke-width:0px;"></path><path d="m206.6801,38.4499c-4.9127,0-10.4417.7126-16.4379,2.1175v8.3655c5.9816-1.3886,11.5089-2.0925,16.4379-2.0925,6.2491,0,9.4175,2.2469,9.4175,6.6774v4.029l-.5275-.0986c-3.1086-.582-6.2636-.8768-9.3769-.8768-13.2619,0-19.7084,4.3794-19.7084,13.389,0,9.4245,5.4205,14.0059,16.5713,14.0059,4.7485,0,9.1541-1.3712,13.0948-4.076l.3058-.2095,4.286,4.2854h6.176v-30.6701c0-9.9897-6.6199-14.8461-20.2388-14.8461Zm9.4175,34.1675l-.184.1335c-3.3912,2.461-7.1225,3.7092-11.0905,3.7092-4.9876,0-7.5165-2.2318-7.5165-6.6327,0-4.1085,2.9897-6.1917,8.8866-6.1917,3.375,0,6.5869.3,9.5463.8925l.358.0714v8.0179Z" style="fill:#203687; stroke-width:0px;"></path><path d="m235.1468,60.324c0,15.9086,7.9505,23.6422,24.3054,23.6422,3.9454,0,7.8078-.4155,11.4874-1.2349v-8.3684c-3.6529.8049-7.2176,1.2128-10.6036,1.2128-9.5342,0-14.3686-5.1315-14.3686-15.2518,0-8.9469,4.8344-13.4836,14.3686-13.4836,3.3831,0,6.9478.4085,10.6036,1.214v-8.3684c-3.6756-.8205-7.538-1.236-11.4874-1.236-16.3549,0-24.3054,7.155-24.3054,21.874Z" style="fill:#203687; stroke-width:0px;"></path><polygon points="349.7536 21.6546 323.304 83.9661 334.3527 83.9661 355.4642 32.1074 366.0841 57.4556 352.9887 57.4556 349.319 66.7292 369.9541 66.7292 377.1584 83.9661 388.7792 83.9661 361.7627 21.6546 349.7536 21.6546" style="fill:#203687; stroke-width:0px;"></polygon><path d="m410.1426,38.4499c-14.5113,0-21.5653,7.1405-21.5653,21.8299,0,15.9382,7.213,23.6863,22.0516,23.6863,6.6014,0,13.4534-.9029,20.3711-2.6833V21.6546h-10.8207v19.2494l-.6285-.2832c-3.1997-1.4403-6.3652-2.1709-9.4082-2.1709Zm10.0367,11.4247v23.6822l-.3116.0981c-2.7384.8641-5.6979,1.3022-8.7966,1.3022-7.8333,0-11.8054-5.0421-11.8054-14.9866,0-8.4194,3.8229-12.688,11.3632-12.688,3.7255,0,6.8712.8275,9.3496,2.4604l.2008.1317Z" style="fill:#203687; stroke-width:0px;"></path><rect x="278.6071" y="21.6546" width="10.7776" height="62.3115" style="fill:#203687; stroke-width:0px;"></rect><polygon points="318.8493 38.3874 306.035 38.3874 293.5865 55.7402 293.5865 63.2017 306.7007 83.9556 319.5929 83.9556 304.2243 59.0806 318.8493 38.3874" style="fill:#203687; stroke-width:0px;"></polygon></g></g></svg>